<?xml version="1.0" encoding="utf-8"?>
<!-- Generator: Adobe Illustrator 27.9.1, SVG Export Plug-In . SVG Version: 6.00 Build 0)  -->
<svg version="1.1" id="レイヤー_1" xmlns="http://www.w3.org/2000/svg" xmlns:xlink="http://www.w3.org/1999/xlink" x="0px"
	 y="0px" viewBox="0 0 200 200" style="enable-background:new 0 0 200 200;" xml:space="preserve">
<style type="text/css">
	.st0{fill:#C4DFE3;}
	.st1{fill:#FCF8F9;}
	.st2{fill:#FFFFFF;}
</style>
<g>
	<ellipse class="st0" cx="100" cy="100" rx="62.76" ry="74.03"/>
</g>
<path class="st0" d="M54.86,62.5c0,0-15.55,1.92-23.96-6.49s-0.59-30.05-0.59-30.05s6.93,6.3,18.06,12.58
	C58.73,44.39,54.86,62.5,54.86,62.5z"/>
<path class="st0" d="M144.26,62.5c0,0,15.55,1.92,23.96-6.49s0.59-30.05,0.59-30.05s-6.93,6.3-18.06,12.58
	C140.39,44.39,144.26,62.5,144.26,62.5z"/>
<ellipse class="st0" cx="100" cy="129.04" rx="88.27" ry="45.56"/>
<ellipse class="st1" cx="66.11" cy="90.74" rx="11.55" ry="16.48"/>
<ellipse class="st1" cx="133.89" cy="90.74" rx="11.55" ry="16.48"/>
<g>
	<g>
		<path class="st2" d="M74.77,173.73H61.93c-1.1,0-2-0.9-2-2v-13.42c0-1.1,0.9-1.15,2-1.15l12.84,1.7c1.1,0,2,0.9,2,2v10.87
			C76.77,172.83,75.87,173.73,74.77,173.73z"/>
		<path class="st0" d="M74.77,174.73H61.93c-1.65,0-3-1.35-3-3v-13.42c0-2.15,2.1-2.15,3-2.15l0.13,0.01l12.78,1.69
			c1.62,0.04,2.93,1.37,2.93,3v10.87C77.77,173.38,76.42,174.73,74.77,174.73z M60.93,158.23c0,0.02,0,0.04,0,0.08v13.42
			c0,0.55,0.45,1,1,1h12.84c0.55,0,1-0.45,1-1v-10.87c0-0.55-0.45-1-1-1l-0.13-0.01l-12.77-1.69
			C61.61,158.16,61.12,158.16,60.93,158.23z"/>
	</g>
	<g>
		<path class="st2" d="M125.23,173.73h12.84c1.1,0,2-0.9,2-2v-13.42c0-1.1-0.9-1.15-2-1.15l-12.84,1.7c-1.1,0-2,0.9-2,2v10.87
			C123.23,172.83,124.13,173.73,125.23,173.73z"/>
		<path class="st0" d="M138.07,174.73h-12.84c-1.65,0-3-1.35-3-3v-10.87c0-1.63,1.31-2.96,2.93-3l12.91-1.7c0.9,0,3,0,3,2.15v13.42
			C141.07,173.38,139.73,174.73,138.07,174.73z M125.23,159.86c-0.55,0-1,0.45-1,1v10.87c0,0.55,0.45,1,1,1h12.84c0.55,0,1-0.45,1-1
			v-13.42c0-0.09-0.01-0.13-0.01-0.13c-0.09-0.02-0.64-0.02-0.92-0.02L125.23,159.86z"/>
	</g>
</g>
<path class="st2" d="M125.8,160.31c-5.76,0-9.96-2.37-14.02-4.66c-3.72-2.1-7.23-4.08-11.8-4.14c-4.61-0.06-8.14,1.96-11.89,4.11
	c-4.02,2.3-8.18,4.69-13.88,4.69c-18.6,0-33.73-10.53-33.73-23.48c0-0.83,0.67-1.5,1.5-1.5s1.5,0.67,1.5,1.5
	c0,11.29,13.79,20.48,30.73,20.48c4.9,0,8.54-2.08,12.39-4.29c3.94-2.26,8.04-4.56,13.43-4.51c5.33,0.08,9.35,2.34,13.23,4.53
	c3.89,2.2,7.57,4.27,12.55,4.27c16.95,0,30.73-9.19,30.73-20.48c0-0.83,0.67-1.5,1.5-1.5s1.5,0.67,1.5,1.5
	C159.53,149.78,144.4,160.31,125.8,160.31z"/>
<circle class="st2" cx="83.14" cy="123.38" r="2.73"/>
<circle class="st2" cx="116.86" cy="123.38" r="2.73"/>
<path class="st2" d="M124.22,125.33c-0.55,0-1-0.45-1-1c0-3.51-2.85-6.36-6.36-6.36s-6.36,2.85-6.36,6.36c0,0.55-0.45,1-1,1
	s-1-0.45-1-1c0-4.61,3.75-8.36,8.36-8.36s8.36,3.75,8.36,8.36C125.22,124.88,124.77,125.33,124.22,125.33z"/>
<path class="st2" d="M90.5,125.33c-0.55,0-1-0.45-1-1c0-3.51-2.85-6.36-6.36-6.36s-6.36,2.85-6.36,6.36c0,0.55-0.45,1-1,1
	s-1-0.45-1-1c0-4.61,3.75-8.36,8.36-8.36s8.36,3.75,8.36,8.36C91.5,124.88,91.06,125.33,90.5,125.33z"/>
<path class="st2" d="M66.11,117.51c-14.45,0-25.77-6.73-25.77-15.32c0-2.41,0.94-4.8,2.71-6.91c0.53-0.64,1.48-0.72,2.11-0.19
	c0.63,0.53,0.72,1.48,0.19,2.11c-1.33,1.59-2.01,3.26-2.01,4.98c0,6.68,10.43,12.32,22.77,12.32s22.77-5.64,22.77-12.32
	c0-1.93-0.85-3.8-2.51-5.55c-0.57-0.6-0.55-1.55,0.05-2.12c0.6-0.57,1.55-0.55,2.12,0.05c2.19,2.29,3.34,4.93,3.34,7.62
	C91.88,110.78,80.56,117.51,66.11,117.51z"/>
<path class="st2" d="M133.89,117.51c-14.45,0-25.77-6.73-25.77-15.32c0-2.41,0.94-4.8,2.71-6.91c0.53-0.63,1.48-0.72,2.11-0.18
	c0.63,0.53,0.72,1.48,0.19,2.11c-1.33,1.59-2.01,3.26-2.01,4.98c0,6.68,10.43,12.32,22.77,12.32s22.77-5.64,22.77-12.32
	c0-1.94-0.85-3.8-2.51-5.55c-0.57-0.6-0.55-1.55,0.05-2.12c0.6-0.57,1.55-0.55,2.12,0.05c2.19,2.29,3.34,4.93,3.34,7.62
	C159.66,110.78,148.34,117.51,133.89,117.51z"/>
<path class="st2" d="M91.05,105.54l-1.35-2.68c3.09-1.56,6.65-2.39,10.3-2.39c3.59,0,7.11,0.8,10.16,2.32l-1.33,2.69
	c-2.64-1.31-5.7-2.01-8.83-2.01C96.82,103.47,93.72,104.19,91.05,105.54z"/>
</svg>
